<svg width="1024" height="1024" viewBox="0 0 1024 1024" fill="none" xmlns="http://www.w3.org/2000/svg">
<path d="M0 0C337.92 0 675.84 0 1024 0C1024 337.92 1024 675.84 1024 1024C686.08 1024 348.16 1024 0 1024C0 686.08 0 348.16 0 0Z" fill="#FEFEFE"/>
<path d="M472.809 304.211C489.854 318.87 506.178 338.411 511 361C511.276 366.066 510.631 370.553 509.562 375.5C505.919 392.537 505.339 410.878 509 428C509.14 428.688 509.28 429.375 509.424 430.084C515.826 460.637 533.975 488.99 560.044 506.541C587.858 524.577 620.441 531.914 653.288 525.342C655.198 524.923 657.099 524.462 659 524C660.194 523.71 661.387 523.42 662.617 523.121C675.813 519.609 687.49 514.886 698.722 507.164C703.511 503.95 703.511 503.95 705.994 504.203C709.793 505.713 712.375 508.737 715.25 511.562C715.9 512.159 716.549 512.755 717.219 513.369C717.832 513.97 718.446 514.572 719.078 515.191C719.639 515.73 720.2 516.268 720.778 516.823C724.076 522.701 721.461 531.218 720.34 537.516C720.159 538.564 719.977 539.613 719.791 540.693C719.18 544.213 718.559 547.732 717.938 551.25C717.499 553.753 717.061 556.256 716.623 558.76C715.775 563.594 714.924 568.428 714.07 573.261C712.575 581.714 711.099 590.169 709.63 598.626C708.303 606.261 706.967 613.893 705.624 621.525C704.792 626.257 703.963 630.99 703.143 635.725C702.362 640.234 701.57 644.74 700.769 649.246C700.474 650.916 700.183 652.587 699.896 654.258C697.095 670.57 697.095 670.57 693 678C692.443 679.052 691.886 680.104 691.312 681.188C686.378 687.188 680.456 690.145 673 692C669.777 692.248 669.777 692.248 666.407 692.246C664.469 692.252 664.469 692.252 662.491 692.258C661.069 692.253 659.647 692.247 658.225 692.24C656.706 692.241 655.186 692.243 653.666 692.246C649.497 692.25 645.329 692.242 641.16 692.232C636.662 692.223 632.164 692.226 627.666 692.228C619.875 692.229 612.084 692.223 604.293 692.211C593.029 692.195 581.764 692.19 570.5 692.188C552.224 692.183 533.948 692.17 515.673 692.151C497.92 692.133 480.167 692.118 462.415 692.11C460.773 692.109 460.773 692.109 459.098 692.108C453.608 692.106 448.118 692.103 442.628 692.101C397.085 692.08 351.543 692.045 306 692C306.121 692.676 306.242 693.352 306.367 694.048C306.915 697.115 307.458 700.182 308 703.25C308.191 704.313 308.382 705.377 308.578 706.473C308.759 707.497 308.939 708.522 309.125 709.578C309.293 710.521 309.46 711.463 309.633 712.435C310 715 310 715 310 719C310.76 718.998 311.52 718.997 312.303 718.995C357.354 718.906 402.406 718.837 447.457 718.796C452.867 718.791 458.277 718.786 463.687 718.78C464.764 718.779 465.84 718.778 466.95 718.777C484.387 718.76 501.824 718.728 519.26 718.691C537.153 718.654 555.046 718.632 572.938 718.624C583.978 718.618 595.018 718.601 606.058 718.568C613.63 718.547 621.201 718.541 628.772 718.546C633.14 718.549 637.508 718.545 641.875 718.523C645.878 718.504 649.88 718.503 653.883 718.516C655.327 718.518 656.771 718.513 658.215 718.5C669.082 718.411 678.445 719.642 686.594 727.387C691.239 732.716 691.553 738.23 691.34 745.066C690.61 751.364 688.196 755.325 683.312 759.312C674.762 765.703 664.763 765.432 654.572 765.388C653.006 765.392 651.439 765.397 649.872 765.404C645.583 765.418 641.294 765.414 637.005 765.407C632.373 765.402 627.741 765.415 623.109 765.425C614.04 765.442 604.972 765.443 595.903 765.438C588.53 765.434 581.157 765.435 573.784 765.44C572.209 765.442 572.209 765.441 570.603 765.443C568.469 765.444 566.336 765.446 564.203 765.447C544.205 765.461 524.206 765.456 504.208 765.444C485.923 765.434 467.638 765.447 449.353 765.471C430.567 765.495 411.781 765.505 392.996 765.498C382.453 765.495 371.911 765.497 361.368 765.515C352.393 765.529 343.417 765.53 334.442 765.513C329.865 765.504 325.289 765.502 320.712 765.517C316.517 765.531 312.322 765.526 308.126 765.507C306.614 765.503 305.102 765.506 303.59 765.517C289.611 765.606 277.892 762.917 267.254 753.445C258.73 744.56 257.723 731.183 255.812 719.562C255.517 717.817 255.221 716.072 254.924 714.327C254.282 710.557 253.646 706.785 253.014 703.014C251.416 693.509 249.764 684.015 248.118 674.519C247.592 671.485 247.07 668.452 246.548 665.418C244.801 655.282 243.031 645.151 241.21 635.028C236.604 609.401 232.277 583.739 228.13 558.035C226.401 547.323 224.656 536.615 222.91 525.906C222.739 524.856 222.568 523.806 222.391 522.724C216.103 484.152 209.49 445.654 202.008 407.293C201.843 406.448 201.679 405.603 201.509 404.732C200.82 401.197 200.131 397.662 199.433 394.129C198.866 391.25 198.303 388.369 197.742 385.488C197.567 384.61 197.392 383.732 197.212 382.827C197.053 382.005 196.894 381.184 196.73 380.337C196.589 379.618 196.447 378.9 196.302 378.159C195.965 375.75 195.95 373.429 196 371C194.783 371.01 194.783 371.01 193.542 371.02C185.877 371.08 178.212 371.126 170.547 371.155C166.606 371.171 162.666 371.192 158.726 371.226C154.92 371.259 151.114 371.277 147.308 371.285C145.86 371.29 144.411 371.301 142.963 371.317C127.075 371.488 127.075 371.488 121.074 366.352C120.388 365.497 120.388 365.497 119.687 364.625C118.982 363.778 118.982 363.778 118.262 362.914C114.544 357.273 114.106 351.582 115 345C117.197 339.325 120.649 335.908 126 333C129.647 331.784 133.004 331.845 136.801 331.839C137.595 331.834 138.389 331.829 139.207 331.824C141.837 331.809 144.467 331.802 147.098 331.797C148.93 331.791 150.763 331.785 152.596 331.78C156.443 331.769 160.291 331.763 164.138 331.76C169.049 331.754 173.958 331.73 178.869 331.702C182.658 331.683 186.447 331.678 190.237 331.676C192.046 331.673 193.854 331.665 195.663 331.652C219.591 331.49 219.591 331.49 228.254 339.961C233.629 346.238 235.381 353.063 236.9 361.01C237.071 361.885 237.242 362.76 237.418 363.662C239.348 373.639 241.112 383.645 242.855 393.656C243.206 395.662 243.557 397.667 243.907 399.672C244.634 403.833 245.359 407.995 246.083 412.156C247.005 417.46 247.935 422.763 248.867 428.065C249.59 432.189 250.309 436.314 251.026 440.44C251.367 442.395 251.709 444.35 252.053 446.305C253.791 456.182 255.487 465.965 256 476C257.212 475.988 258.423 475.977 259.672 475.965C271.816 475.887 283.878 476.278 296 477C295.443 476.259 294.886 475.518 294.312 474.754C274.386 447.253 266.801 412.22 272.125 378.688C278.125 345.535 296.426 315.066 324.184 295.789C369.256 266.991 431.107 269.778 472.809 304.211Z" fill="#0F70ED"/>
<path d="M715.375 308.062C720.074 312.072 724.168 316.167 728 321C728.768 321.92 729.537 322.841 730.328 323.789C750.203 348.053 759.698 380.218 756.773 411.422C754.51 432.01 748.476 452.902 736.09 469.766C734.738 471.883 734.738 471.883 735.568 473.761C737.587 476.918 740.168 479.433 742.82 482.051C743.398 482.628 743.975 483.205 744.57 483.799C745.794 485.02 747.019 486.237 748.247 487.453C750.103 489.29 751.95 491.136 753.797 492.982C754.992 494.172 756.187 495.362 757.383 496.551C757.926 497.093 758.469 497.635 759.028 498.193C761.792 500.924 764.606 503.541 767.562 506.062C773.88 511.54 779.706 517.542 785.617 523.449C786.924 524.753 788.23 526.056 789.537 527.359C792.26 530.076 794.981 532.795 797.701 535.516C801.186 539.001 804.678 542.479 808.172 545.956C810.866 548.639 813.555 551.326 816.243 554.014C817.529 555.299 818.817 556.583 820.107 557.865C821.904 559.652 823.695 561.446 825.484 563.241C826.016 563.767 826.548 564.294 827.096 564.836C831.615 569.394 833.292 572.339 833.375 578.75C833.252 584.351 832.55 588.572 829 593C823.465 598.183 818.831 600.416 811.145 600.273C804.647 599.445 800.176 595.568 795.861 590.924C794.145 589.15 792.383 587.57 790.496 585.98C785.478 581.626 780.815 576.928 776.139 572.214C774.526 570.588 772.909 568.965 771.291 567.342C767.278 563.315 763.269 559.283 759.261 555.251C755.862 551.832 752.461 548.415 749.057 545.001C747.477 543.415 745.901 541.826 744.324 540.237C739.595 535.483 734.833 530.824 729.724 526.477C726.517 523.73 723.456 520.823 720.375 517.938C719.746 517.352 719.117 516.766 718.469 516.162C717.847 515.581 717.226 515.001 716.586 514.402C715.681 513.559 715.681 513.559 714.757 512.699C713.585 511.566 712.447 510.397 711.345 509.196C709.651 507.3 709.651 507.3 707 505C704.052 505.323 701.899 506.51 699.418 508.074C698.742 508.492 698.065 508.909 697.368 509.339C696.649 509.784 695.929 510.229 695.188 510.688C668.514 526.662 632.558 533.597 602 526C578.783 519.556 560.589 509.605 543 493C541.952 492.031 541.952 492.031 540.883 491.043C519.08 470.216 506.646 438.345 505.797 408.504C505.455 382.659 510.575 360.71 523 338C523.504 337.065 524.008 336.131 524.527 335.168C540.167 307.657 567.862 288.349 598 280C599.136 279.68 600.271 279.361 601.441 279.031C642.281 269.515 683.643 282.06 715.375 308.062Z" fill="#FEE601"/>
<path d="M629.25 313.562C631.165 313.574 631.165 313.574 633.119 313.585C658.054 314.02 679.62 324.242 697 342C714.56 360.613 720.807 383.195 720.132 408.277C719.008 431.484 706.683 452.061 690.332 467.91C671.168 485.084 646.534 491.122 621.375 490.152C602.015 488.911 582.846 479.383 569 466C569 465.34 569 464.68 569 464C568.34 464 567.68 464 567 464C548.533 443.954 543.004 419.699 543.821 393.034C545.207 369.564 557.004 348.972 574.263 333.466C590.046 320.142 608.709 313.392 629.25 313.562Z" fill="#FEFEFD"/>
<path d="M448 331C466.031 345.279 476.6 365.021 480.617 387.445C483.178 411.22 478.423 433.629 464 453C461.15 456.494 458.16 459.785 455 463C454.386 463.626 453.773 464.253 453.141 464.898C435.979 481.106 412.247 486.982 389.254 486.348C370.418 485.383 353.877 478.339 339 467C338.273 466.459 337.546 465.917 336.797 465.359C319.736 451.627 309.853 430.358 307 409C305.412 383.445 312.296 359.352 329.389 339.892C360.118 306.106 412.113 304.147 448 331Z" fill="#FDFEFE"/>
<path d="M749.931 163.203C768.332 171.347 784.603 182.675 799.246 196.434C801.555 198.586 803.903 200.65 806.312 202.688C810.282 206.154 813.655 209.934 817 214C817.449 214.542 817.898 215.084 818.361 215.643C824.803 223.443 830.885 231.248 836 240C836.341 240.573 836.682 241.145 837.033 241.735C847.81 259.897 861.209 283.098 858 305C856.504 309.07 853.672 311.75 850 314C845.007 315.664 840.679 315.549 835.75 313.938C828.906 309.116 827.645 300.728 825.688 293.062C819.806 271.263 810.115 251.954 795 235C793.873 233.71 793.873 233.71 792.723 232.395C790.513 229.898 788.27 227.441 786 225C785.066 223.985 785.066 223.985 784.113 222.949C774.831 213.239 763.64 205.598 752 199C750.881 198.366 749.762 197.732 748.609 197.078C738.734 191.732 728.263 188.059 717.672 184.413C716.509 184.012 715.346 183.612 714.148 183.199C712.589 182.671 712.589 182.671 710.998 182.132C705.276 179.972 699.835 177.743 697 172C696.125 167.722 696.128 163.871 697.992 159.871C708.878 143.677 736.206 157.389 749.931 163.203Z" fill="#FEE502"/>
<path d="M435.457 368.32C446.518 375.217 453.659 384.497 457.375 397.062C459.414 409.911 457.3 423.041 450 434C442.484 443.16 433.578 449.271 422 452C407.683 453.208 396.08 451.247 384.473 442.195C375.467 434.199 369.66 423.523 368.727 411.469C368.358 397.08 372.294 385.948 382 375C396.708 361.291 417.859 358.864 435.457 368.32Z" fill="#2E2F2F"/>
<path d="M648.938 371.75C657.566 378.523 663.054 387.464 666 398C666.85 407.917 666.636 416.991 662 426C661.526 426.935 661.051 427.869 660.562 428.832C654.166 440.072 644.208 445.917 632.086 449.578C621.465 451.726 610.559 449.66 601.172 444.422C591.102 437.729 583.544 428.069 581 416C579.843 402.777 580.532 390.542 589.25 379.906C605.226 362.504 628.816 357.955 648.938 371.75Z" fill="#2E2F2F"/>
<path d="M623.812 782.25C632.142 789.226 638.516 799.099 640 810C641.047 824.308 637.466 835.652 628.312 846.688C620.484 855.088 610.931 859.267 599.578 860.316C586.684 860.753 576.355 856.69 566.84 848.035C558.012 838.91 555.276 829.36 555.478 816.938C555.967 805.864 560.15 796.723 567 788C567.66 788 568.32 788 569 788C569.33 787.01 569.66 786.02 570 785C585.717 772.651 607.126 770.177 623.812 782.25Z" fill="#0F6FEC"/>
<path d="M397.449 780.543C406.85 787.333 413.525 797.14 415.68 808.598C417.46 821.953 413.935 834.126 406 845C400.048 852.681 390.629 857.865 381.105 859.75C368.229 861.279 356.643 858.867 346.219 850.914C338.865 844.57 334.12 837.549 332 828C331.009 811.753 333.065 799.733 344 787C357.353 772.709 381.046 770.209 397.449 780.543Z" fill="#0F6FED"/>
<path d="M709.387 208.848C723.958 213.416 737.67 219.963 750 229C750.786 229.575 751.573 230.15 752.383 230.742C758.222 235.157 763.637 240.023 769 245C769.606 245.54 770.212 246.08 770.836 246.637C776.881 252.27 781.396 259.188 786 266C786.57 266.835 787.14 267.671 787.727 268.531C795.94 281.356 804.337 300.49 803.445 316.043C802.229 321.387 799.213 325.549 794.625 328.5C790.551 330.186 788.356 330.688 784 330C778.239 327.497 775.42 324.884 773 319C772.284 316.232 771.774 313.435 771.25 310.625C766.315 286.868 752.431 267.03 732.324 253.48C721.272 246.262 709.575 240.378 697.188 235.812C692.496 234.017 690.241 231.483 688 227C687.584 222.481 687.442 218.352 689.188 214.125C695.317 206.938 700.449 206.611 709.387 208.848Z" fill="#FEE502"/>
<path d="M451 570C456.535 573.147 458.442 577.49 461.32 583.023C469.043 596.708 480.48 604.115 495.203 608.684C509.471 612.405 524.603 609.547 537.391 602.578C547.295 596.588 552.919 587.211 558.75 577.438C560.772 574.195 562.591 571.903 566 570C572.365 569.091 572.365 569.091 575.777 570.988C579.294 573.765 581.593 576.568 582.336 581.008C582.585 594.523 574.107 604.674 565.312 614.188C549.079 629.678 526.767 636.683 504.672 636.27C482.569 635.331 462.875 624.712 447.621 609.047C440.396 600.987 434.501 591.374 434.746 580.371C435.184 576.286 436.971 574.147 439.625 571.188C443.397 569.302 446.879 569.274 451 570Z" fill="#FCFDFE"/>
<path d="M274 248C287.328 252.663 298.586 263.349 305.438 275.562C306.229 278.99 305.819 281.599 305 285C303.75 286.938 303.75 286.938 302 288C297.281 288.614 294.751 286.917 290.812 284.438C284.572 280.639 278.195 277.933 271.306 275.523C266.187 273.678 262.226 271.463 258 268C256.437 263.311 256.477 259.482 258.125 254.812C262.031 248.953 267.058 246.516 274 248Z" fill="#0E6DEE"/>
<path d="M308 712C310 715 310 715 310 719C310.76 718.998 311.52 718.997 312.303 718.995C357.354 718.906 402.406 718.837 447.457 718.796C452.867 718.791 458.277 718.786 463.687 718.78C464.764 718.779 465.84 718.778 466.95 718.777C484.387 718.76 501.824 718.728 519.26 718.691C537.153 718.654 555.046 718.632 572.938 718.624C583.978 718.618 595.018 718.601 606.058 718.568C613.63 718.547 621.201 718.541 628.772 718.546C633.14 718.549 637.508 718.545 641.875 718.523C645.878 718.504 649.88 718.503 653.883 718.516C655.327 718.518 656.771 718.513 658.215 718.5C669.443 718.408 678.061 719.861 686.625 727.438C688.209 729.238 689.179 730.741 690 733C689.625 735.25 689.625 735.25 689 737C688.781 736.481 688.562 735.961 688.336 735.426C685.977 730.237 683.786 727.159 679 724C675.776 723.126 675.776 723.126 673 723C673 722.34 673 721.68 673 721C671.849 721.001 671.849 721.001 670.675 721.002C625.24 721.047 579.805 721.081 534.37 721.102C528.92 721.105 523.47 721.107 518.02 721.11C516.934 721.11 515.849 721.111 514.731 721.111C497.141 721.12 479.55 721.136 461.959 721.154C443.922 721.173 425.884 721.184 407.847 721.188C396.709 721.191 385.571 721.2 374.432 721.216C366.804 721.226 359.176 721.23 351.547 721.227C347.14 721.226 342.733 721.228 338.326 721.238C334.297 721.248 330.268 721.249 326.238 721.242C324.775 721.241 323.312 721.244 321.849 721.25C319.871 721.258 317.893 721.252 315.915 721.246C314.262 721.247 314.262 721.247 312.576 721.248C310 721 310 721 308 719C307.875 715.375 307.875 715.375 308 712Z" fill="#0764F8"/>
<path d="M284 293C287.062 295.188 287.062 295.188 289 297C288.875 299.25 288.875 299.25 288 302C283.034 306.003 277.505 307.832 271.5 309.812C270.576 310.137 269.651 310.461 268.699 310.795C260.047 313.685 260.047 313.685 255 312C251.933 309.256 251.094 307.646 250.5 303.562C251.115 299.182 252.013 297.278 255 294C263.825 288.086 274.625 288.51 284 293Z" fill="#0D6AEF"/>
<path d="M645 393C648.428 394.746 650.439 396.032 652.375 399.375C653.507 404.128 653.61 406.867 651.25 411.25C649.069 413.916 648.107 414.802 645 416C640.119 416.341 636.816 415.663 633 412.562C629.833 408.505 629.65 406.164 630 401C632.944 394.182 637.778 392.113 645 393Z" fill="#FEFEFE"/>
<path d="M438 395C441.614 397.936 443.782 400.081 444.312 404.75C443.915 408.885 442.659 410.838 440 414C436.208 416.492 432.508 416.212 428.156 415.617C424.798 414.656 423.104 412.696 421 410C419.59 407.18 419.755 405.13 420 402C421.397 398.663 422.677 397.231 425.625 395.125C430.037 393.654 433.547 393.631 438 395Z" fill="#FEFEFE"/>
<path d="M406 277C406 277.33 406 277.66 406 278C396.1 278 386.2 278 376 278C376 278.66 376 279.32 376 280C369.4 280.66 362.8 281.32 356 282C368.794 273.471 391.519 274.968 406 277Z" fill="#135DF4"/>
<path d="M596.625 524.25C597.491 524.357 598.357 524.464 599.25 524.574C603.532 525.237 607.768 526.073 612 527C612 527.33 612 527.66 612 528C604.41 528 596.82 528 589 528C588.67 527.34 588.34 526.68 588 526C591.118 524.149 593.042 523.807 596.625 524.25Z" fill="#0767F8"/>
<path d="M673 522C672.34 523.98 671.68 525.96 671 528C668.36 528 665.72 528 663 528C662.34 526.68 661.68 525.36 661 524C662.622 523.47 664.248 522.951 665.875 522.438C666.78 522.147 667.685 521.857 668.617 521.559C671 521 671 521 673 522Z" fill="#0B6AF4"/>
<path d="M510 361C510.33 361 510.66 361 511 361C511.455 367.675 509.767 373.594 508 380C506.5 377.05 505.2 374.085 504 371C504.66 370.34 505.32 369.68 506 369C506 369.99 506 370.98 506 372C506.66 371.67 507.32 371.34 508 371C508.689 368.651 508.689 368.651 509.125 365.938C509.293 365.018 509.46 364.099 509.633 363.152C509.754 362.442 509.875 361.732 510 361Z" fill="#0861F4"/>
<path d="M616 447C621.28 447 626.56 447 632 447C631.01 448.485 631.01 448.485 630 450C626.961 450.293 626.961 450.293 623.375 450.188C622.186 450.16 620.998 450.133 619.773 450.105C618.858 450.071 617.943 450.036 617 450C616.67 449.01 616.34 448.02 616 447Z" fill="#383A39"/>
<path d="M413 826C414.202 830.808 413.462 831.837 411.25 836.125C410.719 837.179 410.188 838.234 409.641 839.32C408 842 408 842 405 844C404.67 843.01 404.34 842.02 404 841C405.32 840.67 406.64 840.34 408 840C408.33 838.02 408.66 836.04 409 834C409.66 834 410.32 834 411 834C411.66 831.36 412.32 828.72 413 826Z" fill="#0A53F1"/>
<path d="M656.562 521.938C657.697 521.958 658.831 521.979 660 522C659.67 522.99 659.34 523.98 659 525C655.04 525.66 651.08 526.32 647 527C647.804 526.361 648.609 525.721 649.438 525.062C653.248 521.996 653.248 521.996 656.562 521.938Z" fill="#F1E70B"/>
<path d="M718 538C718.33 538 718.66 538 719 538C719.257 543.913 718.298 549.239 717 555C716.67 555 716.34 555 716 555C716 550.38 716 545.76 716 541C716.66 541 717.32 541 718 541C718 540.01 718 539.02 718 538Z" fill="#0856F3"/>
<path d="M701 635C701.33 635 701.66 635 702 635C701.858 636.729 701.711 638.459 701.562 640.188C701.481 641.15 701.4 642.113 701.316 643.105C701.023 645.786 700.573 648.366 700 651C699.67 651 699.34 651 699 651C697.801 644.627 697.935 640.762 701 635Z" fill="#0953F1"/>
<path d="M692 512C688.099 514.786 684.615 516.681 680 518C680.33 517.01 680.66 516.02 681 515C681.99 515 682.98 515 684 515C684 514.34 684 513.68 684 513C688.625 510.875 688.625 510.875 692 512Z" fill="#F0EA0F"/>
<path d="M715 513C717.539 514.827 719.905 516.669 722 519C722.438 522.375 722.438 522.375 722 525C721.67 525 721.34 525 721 525C720.67 523.35 720.34 521.7 720 520C718.68 519.67 717.36 519.34 716 519C715.67 517.02 715.34 515.04 715 513Z" fill="#035BF6"/>
<path d="M255 706C255.66 706.33 256.32 706.66 257 707C257 710.96 257 714.92 257 719C254.787 714.574 254.398 711.861 254 707C254.33 706.67 254.66 706.34 255 706Z" fill="#0F5FF3"/>
<path d="M510 368C510.33 368 510.66 368 511 368C510.67 370.64 510.34 373.28 510 376C510.66 376 511.32 376 512 376C512 376.66 512 377.32 512 378C511.34 378 510.68 378 510 378C509.67 378.99 509.34 379.98 509 381C508.67 381 508.34 381 508 381C508.142 379.583 508.289 378.166 508.438 376.75C508.519 375.961 508.6 375.172 508.684 374.359C508.976 372.176 509.421 370.123 510 368Z" fill="#E4E41A"/>
<path d="M504 384C504.99 384.99 505.98 385.98 507 387C506.855 389.699 506.855 389.699 506.188 392.688C505.975 393.681 505.762 394.675 505.543 395.699C505.364 396.458 505.185 397.218 505 398C504.67 398 504.34 398 504 398C504 393.38 504 388.76 504 384Z" fill="#1A78EC"/>
<path d="M419 364C420.459 364.114 421.917 364.242 423.375 364.375C424.593 364.479 424.593 364.479 425.836 364.586C428 365 428 365 430 367C428.542 367.027 427.083 367.046 425.625 367.062C424.813 367.074 424.001 367.086 423.164 367.098C421 367 421 367 419 366C419 365.34 419 364.68 419 364Z" fill="#1C1C1D"/>
<path d="M126 333C126.33 333.99 126.66 334.98 127 336C126.072 336.454 125.144 336.908 124.188 337.375C120.961 338.942 120.961 338.942 118 341C119.502 336.794 122.285 335.261 126 333Z" fill="#0F5AF7"/>
<path d="M295 325C295.66 325.99 296.32 326.98 297 328C292.25 332.875 292.25 332.875 290 334C291.249 330.541 292.675 327.853 295 325Z" fill="#0E57F2"/>
<path d="M270 274C272.31 274 274.62 274 277 274C277 274.66 277 275.32 277 276C277.99 276 278.98 276 280 276C280 276.66 280 277.32 280 278C276.7 277.01 273.4 276.02 270 275C270 274.67 270 274.34 270 274Z" fill="#0655F5"/>
<path d="M690 738C690.33 738 690.66 738 691 738C691 741.3 691 744.6 691 748C690.01 748.33 689.02 748.66 688 749C688 747.35 688 745.7 688 744C688.66 744 689.32 744 690 744C690 742.02 690 740.04 690 738Z" fill="#0C57EF"/>
<path d="M344 471C347.375 472.186 349.647 473.276 352 476C349.36 475.67 346.72 475.34 344 475C344 473.68 344 472.36 344 471Z" fill="#0E5BF4"/>
<path d="M447 608C449.31 609.98 451.62 611.96 454 614C453.01 614.33 452.02 614.66 451 615C447 610.25 447 610.25 447 608Z" fill="#1E65F5"/>
<path d="M591 522C591 522.66 591 523.32 591 524C589.02 524.66 587.04 525.32 585 526C584.67 525.01 584.34 524.02 584 523C586.463 521.769 588.279 521.928 591 522Z" fill="#076AF4"/>
<path d="M560 508C564.875 509.75 564.875 509.75 566 512C563.69 511.67 561.38 511.34 559 511C559.33 510.01 559.66 509.02 560 508Z" fill="#0963F6"/>
<path d="M453 424C453.33 424.99 453.66 425.98 454 427C452.125 430.188 452.125 430.188 450 433C449.67 433 449.34 433 449 433C449 431.35 449 429.7 449 428C449.99 428 450.98 428 452 428C452.33 426.68 452.66 425.36 453 424Z" fill="#181818"/>
</svg>
